<svg width="75" height="40" viewBox="0 0 75 40" fill="none" xmlns="http://www.w3.org/2000/svg">
<path d="M68.4585 16.9091C67.4398 16.9091 66.5033 16.6724 65.6492 16.1991C64.8054 15.7257 64.1314 15.0671 63.6271 14.2233C63.1332 13.3692 62.8862 12.4122 62.8862 11.3522C62.8862 10.2923 63.1332 9.34044 63.6271 8.49661C64.1314 7.65279 64.8054 6.9942 65.6492 6.52084C66.5033 6.04747 67.4398 5.81079 68.4585 5.81079C69.4773 5.81079 70.4086 6.04747 71.2524 6.52084C72.1065 6.9942 72.7754 7.65279 73.2591 8.49661C73.753 9.34044 74 10.2923 74 11.3522C74 12.4122 73.753 13.3692 73.2591 14.2233C72.7651 15.0671 72.0962 15.7257 71.2524 16.1991C70.4086 16.6724 69.4773 16.9091 68.4585 16.9091ZM68.4585 14.5011C69.3229 14.5011 70.0124 14.213 70.5269 13.6367C71.0518 13.0605 71.3142 12.299 71.3142 11.3522C71.3142 10.3952 71.0518 9.63372 70.5269 9.06774C70.0124 8.49147 69.3229 8.20333 68.4585 8.20333C67.5839 8.20333 66.8841 8.48632 66.3593 9.0523C65.8448 9.61828 65.5875 10.3849 65.5875 11.3522C65.5875 12.3092 65.8448 13.0759 66.3593 13.6522C66.8841 14.2181 67.5839 14.5011 68.4585 14.5011Z" fill="white"/>
<path d="M58.7691 9.3919C58.5736 9.03173 58.2906 8.75904 57.9202 8.57381C57.56 8.37829 57.1329 8.28053 56.639 8.28053C55.7849 8.28053 55.1006 8.56352 54.586 9.12949C54.0715 9.68518 53.8142 10.4312 53.8142 11.3677C53.8142 12.3659 54.0818 13.1479 54.6169 13.7139C55.1623 14.2696 55.9084 14.5474 56.8551 14.5474C57.5034 14.5474 58.0488 14.3828 58.4913 14.0535C58.9441 13.7242 59.2734 13.2508 59.4792 12.6334H56.1296V10.6885H61.8717V13.1428C61.6762 13.8014 61.3418 14.4137 60.8684 14.9797C60.4053 15.5456 59.8136 16.0036 59.0933 16.3534C58.3729 16.7033 57.56 16.8783 56.6544 16.8783C55.5842 16.8783 54.6272 16.6467 53.7834 16.1836C52.9498 15.7103 52.2964 15.0568 51.823 14.2233C51.36 13.3898 51.1284 12.4379 51.1284 11.3677C51.1284 10.2975 51.36 9.34559 51.823 8.51206C52.2964 7.66824 52.9498 7.01479 53.7834 6.55172C54.6169 6.07836 55.5688 5.84167 56.639 5.84167C57.9356 5.84167 59.0264 6.15554 59.9114 6.78326C60.8066 7.41098 61.3983 8.28053 61.6865 9.3919H58.7691Z" fill="white"/>
<path d="M44.5662 16.9091C43.5474 16.9091 42.611 16.6724 41.7569 16.1991C40.9131 15.7257 40.239 15.0671 39.7348 14.2233C39.2409 13.3692 38.9939 12.4122 38.9939 11.3522C38.9939 10.2923 39.2409 9.34044 39.7348 8.49661C40.239 7.65279 40.9131 6.9942 41.7569 6.52084C42.611 6.04747 43.5474 5.81079 44.5662 5.81079C45.585 5.81079 46.5163 6.04747 47.3601 6.52084C48.2142 6.9942 48.8831 7.65279 49.3667 8.49661C49.8607 9.34044 50.1077 10.2923 50.1077 11.3522C50.1077 12.4122 49.8607 13.3692 49.3667 14.2233C48.8728 15.0671 48.2039 15.7257 47.3601 16.1991C46.5163 16.6724 45.585 16.9091 44.5662 16.9091ZM44.5662 14.5011C45.4306 14.5011 46.1201 14.213 46.6346 13.6367C47.1594 13.0605 47.4218 12.299 47.4218 11.3522C47.4218 10.3952 47.1594 9.63372 46.6346 9.06774C46.1201 8.49147 45.4306 8.20333 44.5662 8.20333C43.6915 8.20333 42.9918 8.48632 42.4669 9.0523C41.9524 9.61828 41.6952 10.3849 41.6952 11.3522C41.6952 12.3092 41.9524 13.0759 42.4669 13.6522C42.9918 14.2181 43.6915 14.5011 44.5662 14.5011Z" fill="white"/>
<path d="M38.0541 5.96521V8.07991H33.6395V10.3644H36.9428V12.4174H33.6395V16.8011H31V5.96521H38.0541Z" fill="white"/>
<path d="M74.2389 36.146H70.3059L63.7279 26.187V36.146H59.7949V20H63.7279L70.3059 30.005V20H74.2389V36.146Z" fill="white"/>
<path d="M47.442 20V29.66C47.442 30.626 47.6797 31.3697 48.155 31.891C48.6304 32.4123 49.328 32.673 50.248 32.673C51.168 32.673 51.8734 32.4123 52.364 31.891C52.8547 31.3697 53.1 30.626 53.1 29.66V20H57.033V29.637C57.033 31.0783 56.7264 32.2973 56.113 33.294C55.4997 34.2907 54.6717 35.042 53.629 35.548C52.6017 36.054 51.4517 36.307 50.179 36.307C48.9064 36.307 47.764 36.0617 46.752 35.571C45.7554 35.065 44.9657 34.3137 44.383 33.317C43.8004 32.305 43.509 31.0783 43.509 29.637V20H47.442Z" fill="white"/>
<path d="M41.511 20V23.151H34.933V26.555H39.855V29.614H34.933V36.146H31V20H41.511Z" fill="white"/>
<path fill-rule="evenodd" clip-rule="evenodd" d="M11.6507 0C14.6901 1.8157 20.1863 6.64407 18.2103 13.061C18.2625 13.081 18.3145 13.1014 18.3664 13.122C19.6484 11.9606 21.7757 9.28625 21.637 6.85714C22.3767 8.76191 23.4863 11.2381 23.6712 12.5714C24.2759 16.9309 25.7638 20.081 26.2494 21.5153C26.7351 22.9495 27 24.4904 27 26.0952C27 33.7746 20.9558 40 13.5 40C6.04416 40 0 33.7746 0 26.0952C0 24.6647 0.209695 23.2846 0.599221 21.9859C1.26086 17.9215 4.35521 14.3668 8.50685 9.90476C11.9096 6.24762 12.0205 1.77778 11.6507 0ZM15.0842 11.4286C12.5458 12.7445 11.0032 14.7766 10.129 16.5971C9.53104 17.8422 9.24574 18.9884 9.1682 19.7385C8.774 19.1662 8.43057 18.3583 8.16444 17.5926C7.9153 16.8759 7.73372 16.1962 7.64143 15.7816C5.92389 17.4305 2.67995 22.1922 3.44327 28.0487C3.54231 28.4595 3.65966 28.8475 3.79399 29.2135C4.95849 33.6723 8.88851 36.9524 13.5574 36.9524C17.5915 36.9524 21.0739 34.5037 22.6975 30.9617C23.3103 29.6248 23.6584 28.1321 23.6712 26.5565C23.5007 24.3749 22.4811 22.1045 22.1918 21.5153C21.9025 20.926 21.637 20.5714 20.8973 19.4286C20.1575 18.2857 19.6855 17.4084 19.4734 16.9688C19.4734 16.9688 18.4932 18.0952 18.3664 18.2857C18.135 18.6334 16.6438 20.381 16.2292 20.926C15.3946 20.1472 15.054 18.15 14.9585 16.0792C14.8794 14.3623 14.9689 12.5945 15.0842 11.4286Z" fill="url(#paint0_linear_191_111)"/>
<path d="M19.2329 25.5238C19.2329 26.5758 18.4877 27.4286 17.5685 27.4286C16.6493 27.4286 15.9041 26.5758 15.9041 25.5238C15.9041 24.4718 16.6493 23.619 17.5685 23.619C18.4877 23.619 19.2329 24.4718 19.2329 25.5238Z" fill="url(#paint1_linear_191_111)"/>
<path d="M11.0959 25.5238C11.0959 26.5758 10.3507 27.4286 9.43151 27.4286C8.51229 27.4286 7.76712 26.5758 7.76712 25.5238C7.76712 24.4718 8.51229 23.619 9.43151 23.619C10.3507 23.619 11.0959 24.4718 11.0959 25.5238Z" fill="url(#paint2_linear_191_111)"/>
<path d="M17.1986 30.4762C17.1986 30.9765 17.103 31.4718 16.9171 31.934C16.7312 32.3962 16.4588 32.8162 16.1153 33.1699C15.7719 33.5237 15.3641 33.8043 14.9154 33.9957C14.4667 34.1872 13.9857 34.2857 13.5 34.2857C13.0143 34.2857 12.5333 34.1872 12.0846 33.9957C11.6359 33.8043 11.2281 33.5237 10.8847 33.1699C10.5412 32.8162 10.2688 32.3962 10.0829 31.934C9.89704 31.4718 9.80137 30.9765 9.80137 30.4762H17.1986Z" fill="url(#paint3_linear_191_111)"/>
<defs>
<linearGradient id="paint0_linear_191_111" x1="13.5" y1="0" x2="13.5" y2="40" gradientUnits="userSpaceOnUse">
<stop offset="0.0576923" stop-color="#D72638"/>
<stop offset="1" stop-color="#FF9602"/>
</linearGradient>
<linearGradient id="paint1_linear_191_111" x1="13.5" y1="0" x2="13.5" y2="40" gradientUnits="userSpaceOnUse">
<stop offset="0.0576923" stop-color="#D72638"/>
<stop offset="1" stop-color="#FF9602"/>
</linearGradient>
<linearGradient id="paint2_linear_191_111" x1="13.5" y1="0" x2="13.5" y2="40" gradientUnits="userSpaceOnUse">
<stop offset="0.0576923" stop-color="#D72638"/>
<stop offset="1" stop-color="#FF9602"/>
</linearGradient>
<linearGradient id="paint3_linear_191_111" x1="13.5" y1="0" x2="13.5" y2="40" gradientUnits="userSpaceOnUse">
<stop offset="0.0576923" stop-color="#D72638"/>
<stop offset="1" stop-color="#FF9602"/>
</linearGradient>
</defs>
</svg>
